# xmcd CD database file
#
# Track frame offsets:
#	150
#	15613
#	34157
#	51729
#	65936
#	83251
#	99982
#	120503
#	137488
#	153642
#	171494
#	190108
#	211027
#	228195
#	244525
#
# Disc length: 3487 seconds
#
# Revision: 0
# Processed by: cddbd v1.4PL0 Copyright (c) Steve Scherf et al.
# Submitted via: Feurio! 1.66 - http://www.feurio.com
#
DISCID=c20d9d0f
DTITLE=Various Artist - X-Mix Urban Radio 04 - 2002 November
DYEAR=1900
DGENRE=Soul
TTITLE0=Jay-Z ft. Beyonce Knowles - Bonnie and Clyde
TTITLE1=Baby ft. P. Diddy - Do That...
TTITLE2=Shaggy ft. Sean Paul - Hey Sexy Lady (Dancehall Remix)
TTITLE3=J. Lo - Jenny From the Block (Trackmasters Remix)
TTITLE4=Erykah Badu - Love Of My Life
TTITLE5=Busta Rhymes - Make It Clap
TTITLE6=Damani - Move
TTITLE7=3LW ft. Lil' Wayne - Neva Get Enuf
TTITLE8=Field Mob - Sick Of Being Lonely
TTITLE9=The Inc. ft. Nas - The Pledge Remix
TTITLE10=WC ft. Snoop Dogg and Nate Dogg - The Streets
TTITLE11=Ja Rule and Bobby Brown - Thug Lovin'
TTITLE12=Talib Kweli and Bilal - Waiting For The DJ
TTITLE13=TLC - Girl Talk
TTITLE14=Toni Braxton - Hit The Freeway
EXTD=
EXTT0=
EXTT1=
EXTT2=
EXTT3=
EXTT4=
EXTT5=
EXTT6=
EXTT7=
EXTT8=
EXTT9=
EXTT10=
EXTT11=
EXTT12=
EXTT13=
EXTT14=
PLAYORDER=
